HIERARCHY
ROOT Hips
{
    OFFSET 0.0 0.0 0.0
    CHANNELS 6 Xposition Yposition Zposition Zrotation Xrotation Yrotation
    JOINT LeftHipJoint
    {
        OFFSET 0.1 0.0 0.0
        CHANNELS 3 Zrotation Xrotation Yrotation
        JOINT LeftUpLeg
        {
            OFFSET 119.85381615780096 0.0 0.0
            CHANNELS 3 Zrotation Xrotation Yrotation
            JOINT LeftLeg
            {
                OFFSET 0.0 0.0 -412.9718270789973
                CHANNELS 3 Zrotation Xrotation Yrotation
                JOINT LeftFoot
                {
                    OFFSET 0.0 0.0 -398.7974101706648
                    CHANNELS 3 Zrotation Xrotation Yrotation
                    End Site
                    {
                        OFFSET 0.0 -0.1 0.0
                    }
                }
            }
        }
    }
    JOINT LowerBack
    {
        OFFSET 0.0 0.0 0.1
        CHANNELS 3 Zrotation Xrotation Yrotation
        JOINT Spine
        {
            OFFSET 0.0 0.0 218.88417792307808
            CHANNELS 3 Zrotation Xrotation Yrotation
            JOINT Spine1
            {
                OFFSET 0.0 0.0 251.50486621926677
                CHANNELS 3 Zrotation Xrotation Yrotation
                JOINT LeftShoulder
                {
                    OFFSET 0.1 0.0 0.0
                    CHANNELS 3 Zrotation Xrotation Yrotation
                    JOINT LeftArm
                    {
                        OFFSET 140.46837118990607 0.0 0.0
                        CHANNELS 3 Zrotation Xrotation Yrotation
                        JOINT LeftForeArm
                        {
                            OFFSET 257.77227847780966 0.0 0.0
                            CHANNELS 3 Zrotation Xrotation Yrotation
                            JOINT LeftHand
                            {
                                OFFSET 244.83720370855 0.0 0.0
                                CHANNELS 3 Zrotation Xrotation Yrotation
                                End Site
                                {
                                    OFFSET 0.1 0.0 0.0
                                }
                            }
                        }
                    }
                }
                JOINT Neck
                {
                    OFFSET 0.0 0.0 0.1
                    CHANNELS 3 Zrotation Xrotation Yrotation
                    JOINT Neck1
                    {
                        OFFSET 0.0 0.0 106.74223717821462
                        CHANNELS 3 Zrotation Xrotation Yrotation
                        End Site
                        {
                            OFFSET 0.0 0.0 115.87517213852402
                        }
                    }
                }
                JOINT RightShoulder
                {
                    OFFSET -0.1 0.0 0.0
                    CHANNELS 3 Zrotation Xrotation Yrotation
                    JOINT RightArm
                    {
                        OFFSET -140.46837118990607 0.0 0.0
                        CHANNELS 3 Zrotation Xrotation Yrotation
                        JOINT RightForeArm
                        {
                            OFFSET -257.77227847780966 0.0 0.0
                            CHANNELS 3 Zrotation Xrotation Yrotation
                            JOINT RightHand
                            {
                                OFFSET -244.83720370855 0.0 0.0
                                CHANNELS 3 Zrotation Xrotation Yrotation
                                End Site
                                {
                                    OFFSET -0.1 0.0 0.0
                                }
                            }
                        }
                    }
                }
            }
        }
    }
    JOINT RightHipJoint
    {
        OFFSET -0.1 0.0 0.0
        CHANNELS 3 Zrotation Xrotation Yrotation
        JOINT RightUpLeg
        {
            OFFSET -119.85381615780096 0.0 0.0
            CHANNELS 3 Zrotation Xrotation Yrotation
            JOINT RightLeg
            {
                OFFSET 0.0 0.0 -412.9718270789973
                CHANNELS 3 Zrotation Xrotation Yrotation
                JOINT RightFoot
                {
                    OFFSET 0.0 0.0 -398.7974101706648
                    CHANNELS 3 Zrotation Xrotation Yrotation
                    End Site
                    {
                        OFFSET 0.0 -0.1 0.0
                    }
                }
            }
        }
    }
}
MOTION
Frames: 5
Frame Time: 0.03333333333333333
0.0 0.0 810.8956209485754 25.60675198726444 3.677689948215159 4.631312796518647 0.0 0.0 9.93923337957349e-17 -0.5863763152312184 -19.247585208493863 0.10643782136575282 0.9727129977307649 27.258642598818234 -0.7744203838394622 0.0 0.0 0.0 0.0 0.0 9.93923337957349e-17 -0.03693325330816965 -1.2566043084690512 -1.6922752017223284 0.8536129531599429 1.110576550837112e-18 1.490843642331113e-16 0.0 0.0 -9.93923337957349e-17 -29.461689923370372 19.0533620197434 81.00737159800076 -24.000817820065844 -2.3896725202179966e-15 7.417853401143851e-15 0.0 0.0 -2.7457132211071765e-15 0.0 0.0 -9.93923337957349e-17 -4.255679006903163 -4.201231449883381 -2.832258939820132 0.0 0.0 -9.93923337957349e-17 14.922226982930786 20.610956709624126 -74.8325064914684 51.13283536005839 4.1177727752468544e-15 8.607397987048771e-15 0.0 0.0 7.951386703658792e-16 0.0 0.0 9.93923337957349e-17 -0.4613146135942729 -15.278266417823867 -3.372930981838186 -0.8525509160853779 27.664231070701895 -0.23235781323763394 0.0 0.0 0.0
0.0 0.0 810.8956209485754 25.619144313891557 3.5948307138442663 4.557533958909229 0.0 0.0 -1.987846675914698e-16 -0.5667347707240269 -19.078520192722777 0.2040735373009366 0.9932192099378769 27.104818635706973 -0.9220974485360789 0.0 0.0 0.0 0.0 0.0 -1.987846675914698e-16 -0.03333200348126229 -1.162355280013382 -1.7433641927387236 0.8942689909725382 3.4904107490296896e-18 4.472518824827901e-16 0.0 0.0 1.4908850069360235e-16 -28.808009669484843 18.825949368503277 81.00118675472545 -23.689232218016688 4.8613942595607535e-15 -1.5432303791502534e-14 0.0 0.0 1.341796506242421e-15 0.0 0.0 1.4908850069360235e-16 -4.169850422978108 -4.178214317907789 -2.634239328959313 0.0 0.0 1.4908850069360235e-16 14.316760357752125 20.49027110855049 -74.36292289981 52.52953014104519 -1.5192784831694167e-15 1.8483326206910943e-14 0.0 0.0 1.5902773407317588e-15 0.0 0.0 -1.987846675914698e-16 -0.4438097545058293 -15.07554662444801 -3.322002273396953 -0.8392390604306044 27.39504423602112 -0.22208130970102638 0.0 0.0 3.975693351829396e-16
0.0 0.0 810.8956209485754 25.587675261728393 3.743116448089407 4.48592750043882 0.0 0.0 2.981770013872047e-16 -0.5464251456047879 -19.18404186150987 0.25695356086058563 0.9741756237781138 26.876922196346207 -0.9870820951849487 0.0 0.0 -3.975693351829396e-16 0.0 0.0 2.981770013872047e-16 -0.029887334202708112 -1.0875145110007398 -1.8301649498096082 0.9914277421609256 -2.921464312086749e-16 6.983000442066981e-16 0.0 0.0 -9.93923337957349e-17 -27.77113076063561 18.430189024455178 80.90098605708177 -23.38606230969969 -1.604527776708129e-15 3.829368024109219e-15 0.0 0.0 -2.166442275703909e-15 0.0 0.0 -9.93923337957349e-17 -3.934680208488081 -4.321956363390598 -2.3698751326680645 0.0 0.0 -9.93923337957349e-17 13.509241560249945 20.13792000868556 -73.69739922171074 54.182292286018765 1.0139135589052248e-14 1.9821160549120457e-14 6.361109362927035e-15 1.3241718894150476e-31 2.3854160110976384e-15 0.0 0.0 2.981770013872047e-16 -0.4253649673233482 -15.077941093948246 -3.300393665313946 -0.8536162576308541 27.093763646297177 -0.11791752415793358 2.2069531490250793e-32 -3.1805546814635176e-15 7.951386703658794e-16
0.0 0.0 810.8956209485754 25.468029758553815 3.795059502558102 4.4034809148880045 0.0 0.0 -1.987846675914698e-16 -0.5270526961185199 -19.219827741534484 0.27832959583444283 0.9539022462873407 26.882635640584695 -1.0104949207893519 0.0 0.0 7.951386703658792e-16 0.0 0.0 -1.987846675914698e-16 -0.026747813463177436 -1.0110037037849973 -1.8378869305244543 0.9632695585928096 3.3419732748188687e-18 3.975552885982464e-16 0.0 0.0 -9.93923337957349e-17 -27.144326974396165 18.309955236240047 80.88567773679695 -23.31098235647508 -9.429607697029857e-15 2.4187130037845634e-15 0.0 0.0 -2.982740642131771e-15 0.0 0.0 -9.93923337957349e-17 -3.627995138939527 -4.31033748170266 -2.2319299683884446 0.0 0.0 -9.93923337957349e-17 12.725678342887244 20.15320771081449 -73.33350525392218 56.15645272094921 1.4970127267683873e-15 2.8062218332970352e-15 6.3611093629270335e-15 -1.3241718894150476e-31 -2.3854160110976376e-15 0.0 0.0 -1.987846675914698e-16 -0.40970451775604455 -15.083680033015137 -3.286031290086001 -0.8717744145511772 26.945600266008373 -0.0540592169886518 0.0 -3.3793393490549868e-15 0.0
0.0 0.0 810.8956209485754 25.370246062264883 3.8576626117018282 4.389490973308645 0.0 0.0 -9.93923337957349e-17 -0.542594050100646 -19.382177552265304 0.2168014090516352 0.9440231769828299 26.982844278190598 -0.9405157887159318 0.0 0.0 7.951386703658791e-16 0.0 0.0 -9.93923337957349e-17 -0.027594563214280027 -1.0223259957731456 -1.912330486944806 0.899583735889428 -2.942665309197469e-16 4.992871251802836e-16 0.0 0.0 -1.987846675914698e-16 -26.390600004106172 17.96715188889498 80.88838045825536 -22.9598876795276 -3.524587388437696e-15 5.36947883409302e-15 0.0 0.0 1.349561532320213e-15 0.0 0.0 -1.987846675914698e-16 -3.5175158825217174 -4.26645791621519 -2.1694580510719805 0.0 0.0 -1.987846675914698e-16 12.180238319740198 19.976198753774096 -72.96404811591977 58.17930686476212 -8.044841147585039e-15 -2.1001831705808358e-14 0.0 0.0 7.951386703658792e-16 0.0 0.0 -9.93923337957349e-17 -0.4204716467811036 -15.168028477782714 -3.3656751291286566 -0.9004506754910813 27.065465874630796 0.008914031129590272 0.0 0.0 3.975693351829396e-16
